<svg id="visual" viewBox="0 0 900 600" width="900" height="600" xmlns="http://www.w3.org/2000/svg" xmlns:xlink="http://www.w3.org/1999/xlink" version="1.1"><rect x="0" y="0" width="900" height="600" fill="#fff"></rect><path d="M0 369L21.5 380.8C43 392.7 86 416.3 128.8 416.7C171.7 417 214.3 394 257.2 375.7C300 357.3 343 343.7 385.8 356.7C428.7 369.7 471.3 409.3 514.2 411.7C557 414 600 379 642.8 365.5C685.7 352 728.3 360 771.2 366.3C814 372.7 857 377.3 878.5 379.7L900 382L900 601L878.5 601C857 601 814 601 771.2 601C728.3 601 685.7 601 642.8 601C600 601 557 601 514.2 601C471.3 601 428.7 601 385.8 601C343 601 300 601 257.2 601C214.3 601 171.7 601 128.8 601C86 601 43 601 21.5 601L0 601Z" fill="#747494"></path><path d="M0 393L21.5 397.7C43 402.3 86 411.7 128.8 410.2C171.7 408.7 214.3 396.3 257.2 399.5C300 402.7 343 421.3 385.8 423.3C428.7 425.3 471.3 410.7 514.2 403.3C557 396 600 396 642.8 411.8C685.7 427.7 728.3 459.3 771.2 469.2C814 479 857 467 878.5 461L900 455L900 601L878.5 601C857 601 814 601 771.2 601C728.3 601 685.7 601 642.8 601C600 601 557 601 514.2 601C471.3 601 428.7 601 385.8 601C343 601 300 601 257.2 601C214.3 601 171.7 601 128.8 601C86 601 43 601 21.5 601L0 601Z" fill="#5f5f7f"></path><path d="M0 456L21.5 452.2C43 448.3 86 440.7 128.8 451.8C171.7 463 214.3 493 257.2 495C300 497 343 471 385.8 463.8C428.7 456.7 471.3 468.3 514.2 474.5C557 480.7 600 481.3 642.8 478.7C685.7 476 728.3 470 771.2 462.3C814 454.7 857 445.3 878.5 440.7L900 436L900 601L878.5 601C857 601 814 601 771.2 601C728.3 601 685.7 601 642.8 601C600 601 557 601 514.2 601C471.3 601 428.7 601 385.8 601C343 601 300 601 257.2 601C214.3 601 171.7 601 128.8 601C86 601 43 601 21.5 601L0 601Z" fill="#4b4a6b"></path><path d="M0 530L21.5 523.5C43 517 86 504 128.8 503.5C171.7 503 214.3 515 257.2 519.5C300 524 343 521 385.8 513.3C428.7 505.7 471.3 493.3 514.2 490.8C557 488.3 600 495.7 642.8 497.7C685.7 499.7 728.3 496.3 771.2 492.5C814 488.7 857 484.3 878.5 482.2L900 480L900 601L878.5 601C857 601 814 601 771.2 601C728.3 601 685.7 601 642.8 601C600 601 557 601 514.2 601C471.3 601 428.7 601 385.8 601C343 601 300 601 257.2 601C214.3 601 171.7 601 128.8 601C86 601 43 601 21.5 601L0 601Z" fill="#373657"></path><path d="M0 549L21.5 547.5C43 546 86 543 128.8 538.8C171.7 534.7 214.3 529.3 257.2 525.7C300 522 343 520 385.8 524.3C428.7 528.7 471.3 539.3 514.2 544C557 548.7 600 547.3 642.8 548.3C685.7 549.3 728.3 552.7 771.2 547.8C814 543 857 530 878.5 523.5L900 517L900 601L878.5 601C857 601 814 601 771.2 601C728.3 601 685.7 601 642.8 601C600 601 557 601 514.2 601C471.3 601 428.7 601 385.8 601C343 601 300 601 257.2 601C214.3 601 171.7 601 128.8 601C86 601 43 601 21.5 601L0 601Z" fill="#242444"></path></svg>