<svg id="visual" viewBox="0 0 900 450" width="900" height="450" xmlns="http://www.w3.org/2000/svg" xmlns:xlink="http://www.w3.org/1999/xlink" version="1.1"><path d="M0 69L82 64L164 64L245 42L327 87L409 64L491 87L573 60L655 91L736 42L818 37L900 37L900 0L818 0L736 0L655 0L573 0L491 0L409 0L327 0L245 0L164 0L82 0L0 0Z" fill="#242444"></path><path d="M0 150L82 123L164 105L245 154L327 195L409 123L491 150L573 118L655 145L736 109L818 91L900 114L900 35L818 35L736 40L655 89L573 58L491 85L409 62L327 85L245 40L164 62L82 62L0 67Z" fill="#1a3c5d"></path><path d="M0 240L82 289L164 316L245 321L327 271L409 186L491 262L573 186L655 316L736 298L818 181L900 253L900 112L818 89L736 107L655 143L573 116L491 148L409 121L327 193L245 152L164 103L82 121L0 148Z" fill="#005471"></path><path d="M0 316L82 366L164 352L245 352L327 316L409 262L491 339L573 262L655 357L736 366L818 244L900 307L900 251L818 179L736 296L655 314L573 184L491 260L409 184L327 269L245 319L164 314L82 287L0 238Z" fill="#006c7a"></path><path d="M0 451L82 451L164 451L245 451L327 451L409 451L491 451L573 451L655 451L736 451L818 451L900 451L900 305L818 242L736 364L655 355L573 260L491 337L409 260L327 314L245 350L164 350L82 364L0 314Z" fill="#038373"></path></svg>